<?xml version="1.0" encoding="utf-8"?>
<!-- Generator: Adobe Illustrator 16.0.3, SVG Export Plug-In . SVG Version: 6.00 Build 0)  -->
<!DOCTYPE svg PUBLIC "-//W3C//DTD SVG 1.1//EN" "http://www.w3.org/Graphics/SVG/1.1/DTD/svg11.dtd">
<svg version="1.1" id="Layer_1" xmlns="http://www.w3.org/2000/svg" xmlns:xlink="http://www.w3.org/1999/xlink" x="0px" y="0px"
	 width="205.886px" height="299.5px" viewBox="0 0 205.886 299.5" enable-background="new 0 0 205.886 299.5" xml:space="preserve">
<g>
	<path fill-rule="evenodd" clip-rule="evenodd" fill="#331908" d="M75.359,4.441c40.093,13.893,65.289,42.375,81.061,80.4
		c11.289,27.255,25.9,53.444,24.579,84.681c-0.356,8.438-2.888,12.729-9.351,17.038c-22.947,15.305-49.53,21.247-75.063,29.857
		c-7.049,2.376-14.214,1.001-20.176-3.669C33.894,179.463,7.417,136.699,3.4,82.331C0.866,48.003,19.582,20.597,51.039,6.773
		c2.021-0.887,5.431-2.123,7.686-2.487C68.211,3.566,72.625,4.237,75.359,4.441z"/>
	<path fill-rule="evenodd" clip-rule="evenodd" fill="#331908" d="M144.449,296.707c-25.2-4.865-40.138-24.121-47.616-48.07
		c-3.107-9.984-1.159-16.424,9.936-20.43c24.084-8.697,48.826-15.899,71.255-28.758c3.971-2.279,7.738-3.324,11.732,1.19
		c16.796,19.001,18.659,57.15,3.4,76.568c-8.011,10.174-20.19,16.287-32.313,19.5c-1.601,0.146-4.826,0.852-8.197,0.852
		C149.374,297.559,145.619,297.146,144.449,296.707z"/>
</g>
</svg>
