<?xml version="1.0" encoding="utf-8"?>
<!-- Generator: Adobe Illustrator 16.0.3, SVG Export Plug-In . SVG Version: 6.00 Build 0)  -->
<!DOCTYPE svg PUBLIC "-//W3C//DTD SVG 1.1//EN" "http://www.w3.org/Graphics/SVG/1.1/DTD/svg11.dtd">
<svg version="1.1" id="Layer_1" xmlns="http://www.w3.org/2000/svg" xmlns:xlink="http://www.w3.org/1999/xlink" x="0px" y="0px"
	 width="205.886px" height="299.5px" viewBox="0 0 205.886 299.5" enable-background="new 0 0 205.886 299.5" xml:space="preserve">
<g>
	<path fill-rule="evenodd" clip-rule="evenodd" fill="#331908" d="M87.702,8.74c-30.998,25.879-43.82,59.722-45.04,98.879
		c-0.857,28.062-5.03,56.294,6.675,83.65c3.161,7.389,6.86,10.354,14.065,12.01c25.58,5.885,51.242,2.211,76.869,1.267
		c7.075-0.262,12.989-3.901,16.719-10.067c26.617-43.955,35.764-90.939,21.011-140.679c-9.316-31.406-35.212-49.487-67.868-51.184
		c-2.098-0.109-5.549-0.06-7.679,0.377C93.77,5.55,90.067,7.635,87.702,8.74z"/>
	<path fill-rule="evenodd" clip-rule="evenodd" fill="#331908" d="M124.739,292.138c20.789-12.825,27.592-34.998,26.173-58.833
		c-0.6-9.932-4.504-15.007-15.729-14.832c-24.365,0.378-48.814,2.309-73.111-1.573c-4.301-0.69-8.008-0.351-10.038,5.014
		c-8.544,22.572,2.658,57.152,22.784,69.29c10.562,6.354,23.46,7.689,35.331,6.461c1.476-0.411,4.585-0.87,7.584-2.006
		C120.645,294.556,123.848,292.923,124.739,292.138z"/>
</g>
</svg>
